<svg width="836" height="112" viewBox="0 0 836 112" fill="none" xmlns="http://www.w3.org/2000/svg">
<g filter="url(#filter0_d_11_9)">
<path d="M3.99999 101.438L17.936 1.60798H58.404C67.9627 1.60798 75.3327 3.84131 80.514 8.30798C85.7847 12.6853 88.42 18.8493 88.42 26.8C88.42 30.3733 87.884 33.6787 86.812 36.716C85.8293 39.7533 84.266 42.478 82.122 44.89C80.0673 47.302 77.432 49.446 74.216 51.322L72.742 43.684C78.7273 46.364 82.8367 49.714 85.07 53.734C87.3033 57.754 88.42 62.042 88.42 66.598C88.42 73.834 86.7673 80.0873 83.462 85.358C80.246 90.5393 75.6007 94.5147 69.526 97.284C63.4513 100.053 56.26 101.438 47.952 101.438H3.99999ZM27.316 83.348H52.24C55.2773 83.348 57.9127 82.7227 60.146 81.472C62.4687 80.2213 64.2553 78.4793 65.506 76.246C66.846 74.0127 67.516 71.4667 67.516 68.608C67.516 65.2133 66.3993 62.4887 64.166 60.434C61.9327 58.29 58.8953 57.218 55.054 57.218H30.934L27.316 83.348ZM33.48 39.128H55.992C58.3147 39.128 60.3247 38.6367 62.022 37.654C63.8087 36.6713 65.1933 35.3313 66.176 33.634C67.1587 31.9366 67.65 29.9713 67.65 27.738C67.65 25.1473 66.8013 23.048 65.104 21.44C63.4067 19.832 61.084 19.028 58.136 19.028H36.294L33.48 39.128ZM151.707 103.046C144.471 103.046 137.771 101.84 131.607 99.428C125.532 97.016 120.217 93.6213 115.661 89.244C111.194 84.8667 107.71 79.7747 105.209 73.968C102.707 68.072 101.457 61.64 101.457 54.672C101.457 46.9 102.886 39.7087 105.745 33.098C108.603 26.4873 112.579 20.7253 117.671 15.812C122.763 10.8093 128.659 6.92332 135.359 4.15399C142.148 1.38465 149.473 -1.56164e-05 157.335 -1.56164e-05C164.66 -1.56164e-05 171.36 1.20598 177.435 3.61799C183.599 6.02999 188.914 9.42465 193.381 13.802C197.937 18.09 201.421 23.182 203.833 29.078C206.334 34.8847 207.585 41.2273 207.585 48.106C207.585 55.878 206.155 63.114 203.297 69.814C200.438 76.4247 196.418 82.2313 191.237 87.234C186.145 92.2367 180.204 96.1227 173.415 98.892C166.715 101.661 159.479 103.046 151.707 103.046ZM151.707 84.286C156.531 84.286 161.042 83.3927 165.241 81.606C169.529 79.8193 173.281 77.318 176.497 74.102C179.713 70.886 182.214 67.0893 184.001 62.712C185.877 58.2453 186.815 53.4213 186.815 48.24C186.815 42.344 185.519 37.2073 182.929 32.83C180.427 28.3633 176.943 24.924 172.477 22.512C168.099 20.0106 163.052 18.76 157.335 18.76C152.511 18.76 147.955 19.6533 143.667 21.44C139.468 23.2267 135.761 25.728 132.545 28.944C129.329 32.0707 126.783 35.8227 124.907 40.2C123.12 44.5773 122.227 49.4013 122.227 54.672C122.227 60.4787 123.477 65.6153 125.979 70.082C128.569 74.5487 132.053 78.0327 136.431 80.534C140.897 83.0353 145.989 84.286 151.707 84.286ZM269.873 103.046C262.637 103.046 255.937 101.84 249.773 99.428C243.698 97.016 238.383 93.6213 233.827 89.244C229.36 84.8667 225.876 79.7747 223.375 73.968C220.873 68.072 219.623 61.64 219.623 54.672C219.623 46.9 221.052 39.7087 223.911 33.098C226.769 26.4873 230.745 20.7253 235.837 15.812C240.929 10.8093 246.825 6.92332 253.525 4.15399C260.314 1.38465 267.639 -1.56164e-05 275.501 -1.56164e-05C282.826 -1.56164e-05 289.526 1.20598 295.601 3.61799C301.765 6.02999 307.08 9.42465 311.547 13.802C316.103 18.09 319.587 23.182 321.999 29.078C324.5 34.8847 325.751 41.2273 325.751 48.106C325.751 55.878 324.321 63.114 321.463 69.814C318.604 76.4247 314.584 82.2313 309.403 87.234C304.311 92.2367 298.37 96.1227 291.581 98.892C284.881 101.661 277.645 103.046 269.873 103.046ZM269.873 84.286C274.697 84.286 279.208 83.3927 283.407 81.606C287.695 79.8193 291.447 77.318 294.663 74.102C297.879 70.886 300.38 67.0893 302.167 62.712C304.043 58.2453 304.981 53.4213 304.981 48.24C304.981 42.344 303.685 37.2073 301.095 32.83C298.593 28.3633 295.109 24.924 290.643 22.512C286.265 20.0106 281.218 18.76 275.501 18.76C270.677 18.76 266.121 19.6533 261.833 21.44C257.634 23.2267 253.927 25.728 250.711 28.944C247.495 32.0707 244.949 35.8227 243.073 40.2C241.286 44.5773 240.393 49.4013 240.393 54.672C240.393 60.4787 241.643 65.6153 244.145 70.082C246.735 74.5487 250.219 78.0327 254.597 80.534C259.063 83.0353 264.155 84.286 269.873 84.286ZM333.635 101.438L347.571 1.60798H368.341L361.373 51.59L355.879 49.58L402.511 1.60798H428.507L382.277 49.312L385.627 34.572L415.375 101.438H392.461L373.567 58.29L358.157 74.102L354.405 101.438H333.635ZM425.629 101.438L439.565 1.60798H459.665L490.351 53.198L477.487 52.26L523.315 1.60798H544.085L530.149 101.438H509.379L519.965 25.192L525.995 27.336L482.713 75.978H480.033L448.409 21.708L456.985 25.192L446.399 101.438H425.629ZM540.482 101.438L588.186 1.60798H615.79L635.622 101.438H613.78L610.028 81.07H573.58L564.066 101.438H540.482ZM581.888 62.98H606.678L598.102 16.08L603.596 16.75L581.888 62.98ZM645.996 101.438L659.932 1.60798H696.782C703.214 1.60798 708.842 2.76931 713.666 5.09198C718.49 7.32532 722.242 10.6753 724.922 15.142C727.691 19.6086 729.076 25.1473 729.076 31.758C729.076 36.4927 728.227 40.87 726.53 44.89C724.922 48.91 722.555 52.394 719.428 55.342C716.391 58.29 712.683 60.6127 708.306 62.31L725.056 101.438H702.946L684.32 56.95L696.782 65.258H671.858L666.766 101.438H645.996ZM674.404 47.168H692.226C695.353 47.168 698.077 46.498 700.4 45.158C702.812 43.818 704.688 41.9867 706.028 39.664C707.457 37.3413 708.172 34.706 708.172 31.758C708.172 28.0953 706.966 25.192 704.554 23.048C702.231 20.8147 699.06 19.698 695.04 19.698H678.156L674.404 47.168ZM736.812 101.438L750.748 1.60798H771.518L764.55 51.59L759.056 49.58L805.688 1.60798H831.684L785.454 49.312L788.804 34.572L818.552 101.438H795.638L776.744 58.29L761.334 74.102L757.582 101.438H736.812Z" fill="#4ECDC4"/>
</g>
<g filter="url(#filter1_d_11_9)">
<mask id="path-2-outside-1_11_9" maskUnits="userSpaceOnUse" x="63.248" y="22.438" width="347" height="60" fill="black">
<rect fill="white" x="63.248" y="22.438" width="347" height="60"/>
<path d="M71.04 76.438L77.696 28.758H87.616L80.96 76.438H71.04ZM89.415 76.438L96.071 28.758H105.991L100.551 67.798H120.711L119.495 76.438H89.415ZM124.415 76.438L131.071 28.758H140.991L138.111 49.366H156.671L159.551 28.758H169.471L162.815 76.438H152.895L155.455 58.006H136.895L134.335 76.438H124.415ZM167.77 76.438L190.554 28.758H203.738L213.21 76.438H202.778L200.986 66.71H183.578L179.034 76.438H167.77ZM187.546 58.07H199.386L195.29 35.67L197.914 35.99L187.546 58.07ZM218.165 76.438L224.821 28.758H234.421L249.077 53.398L242.933 52.95L264.821 28.758H274.741L268.085 76.438H258.165L263.221 40.022L266.101 41.046L245.429 64.278H244.149L229.045 38.358L233.141 40.022L228.085 76.438H218.165ZM276.54 76.438L283.196 28.758H315.26L314.044 37.398H291.9L290.428 48.214H311.292L310.076 56.854H289.212L287.676 67.798H309.82L308.604 76.438H276.54ZM318.259 76.438L319.667 66.838H329.267L327.859 76.438H318.259ZM340.415 76.438L347.071 28.758H356.991L350.335 76.438H340.415ZM358.79 76.438L365.446 28.758H380.166C384.774 28.758 388.806 29.6753 392.262 31.51C395.718 33.3447 398.406 35.8833 400.326 39.126C402.289 42.3687 403.27 46.102 403.27 50.326C403.27 54.0807 402.63 57.558 401.35 60.758C400.07 63.9153 398.235 66.6673 395.846 69.014C393.457 71.3607 390.619 73.1953 387.334 74.518C384.049 75.798 380.379 76.438 376.326 76.438H358.79ZM369.926 67.798H376.326C378.843 67.798 381.126 67.3927 383.174 66.582C385.265 65.7287 387.057 64.534 388.55 62.998C390.043 61.4193 391.195 59.5847 392.006 57.494C392.859 55.3607 393.286 53.014 393.286 50.454C393.286 47.766 392.731 45.4407 391.622 43.478C390.513 41.5153 388.934 40.022 386.886 38.998C384.838 37.9313 382.385 37.398 379.526 37.398H374.15L369.926 67.798Z"/>
</mask>
<path d="M71.04 76.438L77.696 28.758H87.616L80.96 76.438H71.04ZM89.415 76.438L96.071 28.758H105.991L100.551 67.798H120.711L119.495 76.438H89.415ZM124.415 76.438L131.071 28.758H140.991L138.111 49.366H156.671L159.551 28.758H169.471L162.815 76.438H152.895L155.455 58.006H136.895L134.335 76.438H124.415ZM167.77 76.438L190.554 28.758H203.738L213.21 76.438H202.778L200.986 66.71H183.578L179.034 76.438H167.77ZM187.546 58.07H199.386L195.29 35.67L197.914 35.99L187.546 58.07ZM218.165 76.438L224.821 28.758H234.421L249.077 53.398L242.933 52.95L264.821 28.758H274.741L268.085 76.438H258.165L263.221 40.022L266.101 41.046L245.429 64.278H244.149L229.045 38.358L233.141 40.022L228.085 76.438H218.165ZM276.54 76.438L283.196 28.758H315.26L314.044 37.398H291.9L290.428 48.214H311.292L310.076 56.854H289.212L287.676 67.798H309.82L308.604 76.438H276.54ZM318.259 76.438L319.667 66.838H329.267L327.859 76.438H318.259ZM340.415 76.438L347.071 28.758H356.991L350.335 76.438H340.415ZM358.79 76.438L365.446 28.758H380.166C384.774 28.758 388.806 29.6753 392.262 31.51C395.718 33.3447 398.406 35.8833 400.326 39.126C402.289 42.3687 403.27 46.102 403.27 50.326C403.27 54.0807 402.63 57.558 401.35 60.758C400.07 63.9153 398.235 66.6673 395.846 69.014C393.457 71.3607 390.619 73.1953 387.334 74.518C384.049 75.798 380.379 76.438 376.326 76.438H358.79ZM369.926 67.798H376.326C378.843 67.798 381.126 67.3927 383.174 66.582C385.265 65.7287 387.057 64.534 388.55 62.998C390.043 61.4193 391.195 59.5847 392.006 57.494C392.859 55.3607 393.286 53.014 393.286 50.454C393.286 47.766 392.731 45.4407 391.622 43.478C390.513 41.5153 388.934 40.022 386.886 38.998C384.838 37.9313 382.385 37.398 379.526 37.398H374.15L369.926 67.798Z" fill="#FF6B9D"/>
<path d="M71.04 76.438L65.0976 75.6084L64.1442 82.438H71.04V76.438ZM77.696 28.758V22.758H72.4754L71.7536 27.9284L77.696 28.758ZM87.616 28.758L93.5584 29.5875L94.5117 22.758H87.616V28.758ZM80.96 76.438V82.438H86.1806L86.9024 77.2675L80.96 76.438ZM71.04 76.438L76.9824 77.2675L83.6384 29.5875L77.696 28.758L71.7536 27.9284L65.0976 75.6084L71.04 76.438ZM77.696 28.758V34.758H87.616V28.758V22.758H77.696V28.758ZM87.616 28.758L81.6736 27.9284L75.0176 75.6084L80.96 76.438L86.9024 77.2675L93.5584 29.5875L87.616 28.758ZM80.96 76.438V70.438H71.04V76.438V82.438H80.96V76.438ZM89.415 76.438L83.4726 75.6084L82.5192 82.438H89.415V76.438ZM96.071 28.758V22.758H90.8504L90.1286 27.9284L96.071 28.758ZM105.991 28.758L111.934 29.586L112.885 22.758H105.991V28.758ZM100.551 67.798L94.6084 66.9699L93.657 73.798H100.551V67.798ZM120.711 67.798L126.652 68.6342L127.615 61.798H120.711V67.798ZM119.495 76.438V82.438H124.71L125.436 77.2742L119.495 76.438ZM89.415 76.438L95.3574 77.2675L102.013 29.5875L96.071 28.758L90.1286 27.9284L83.4726 75.6084L89.415 76.438ZM96.071 28.758V34.758H105.991V28.758V22.758H96.071V28.758ZM105.991 28.758L100.048 27.9299L94.6084 66.9699L100.551 67.798L106.494 68.6261L111.934 29.586L105.991 28.758ZM100.551 67.798V73.798H120.711V67.798V61.798H100.551V67.798ZM120.711 67.798L114.77 66.9618L113.554 75.6018L119.495 76.438L125.436 77.2742L126.652 68.6342L120.711 67.798ZM119.495 76.438V70.438H89.415V76.438V82.438H119.495V76.438ZM124.415 76.438L118.473 75.6084L117.519 82.438H124.415V76.438ZM131.071 28.758V22.758H125.85L125.129 27.9284L131.071 28.758ZM140.991 28.758L146.933 29.5884L147.888 22.758H140.991V28.758ZM138.111 49.366L132.169 48.5355L131.214 55.366H138.111V49.366ZM156.671 49.366V55.366H161.891L162.613 50.1964L156.671 49.366ZM159.551 28.758V22.758H154.331L153.609 27.9275L159.551 28.758ZM169.471 28.758L175.413 29.5875L176.367 22.758H169.471V28.758ZM162.815 76.438V82.438H168.036L168.757 77.2675L162.815 76.438ZM152.895 76.438L146.952 75.6126L146.004 82.438H152.895V76.438ZM155.455 58.006L161.398 58.8314L162.346 52.006H155.455V58.006ZM136.895 58.006V52.006H131.671L130.952 57.1806L136.895 58.006ZM134.335 76.438V82.438H139.559L140.278 77.2634L134.335 76.438ZM124.415 76.438L130.357 77.2675L137.013 29.5875L131.071 28.758L125.129 27.9284L118.473 75.6084L124.415 76.438ZM131.071 28.758V34.758H140.991V28.758V22.758H131.071V28.758ZM140.991 28.758L135.049 27.9275L132.169 48.5355L138.111 49.366L144.053 50.1964L146.933 29.5884L140.991 28.758ZM138.111 49.366V55.366H156.671V49.366V43.366H138.111V49.366ZM156.671 49.366L162.613 50.1964L165.493 29.5884L159.551 28.758L153.609 27.9275L150.729 48.5355L156.671 49.366ZM159.551 28.758V34.758H169.471V28.758V22.758H159.551V28.758ZM169.471 28.758L163.529 27.9284L156.873 75.6084L162.815 76.438L168.757 77.2675L175.413 29.5875L169.471 28.758ZM162.815 76.438V70.438H152.895V76.438V82.438H162.815V76.438ZM152.895 76.438L158.838 77.2634L161.398 58.8314L155.455 58.006L149.512 57.1806L146.952 75.6126L152.895 76.438ZM155.455 58.006V52.006H136.895V58.006V64.006H155.455V58.006ZM136.895 58.006L130.952 57.1806L128.392 75.6126L134.335 76.438L140.278 77.2634L142.838 58.8314L136.895 58.006ZM134.335 76.438V70.438H124.415V76.438V82.438H134.335V76.438ZM167.77 76.438L162.356 73.8511L158.253 82.438H167.77V76.438ZM190.554 28.758V22.758H186.771L185.14 26.1711L190.554 28.758ZM203.738 28.758L209.623 27.5889L208.663 22.758H203.738V28.758ZM213.21 76.438V82.438H220.519L219.095 75.2689L213.21 76.438ZM202.778 76.438L196.877 77.525L197.782 82.438H202.778V76.438ZM200.986 66.71L206.887 65.623L205.982 60.71H200.986V66.71ZM183.578 66.71V60.71H179.758L178.142 64.1707L183.578 66.71ZM179.034 76.438V82.438H182.854L184.47 78.9773L179.034 76.438ZM187.546 58.07L182.115 55.5198L178.1 64.07H187.546V58.07ZM199.386 58.07V64.07H206.583L205.288 56.9907L199.386 58.07ZM195.29 35.67L196.016 29.7141L187.921 28.7269L189.388 36.7492L195.29 35.67ZM197.914 35.99L203.345 38.5402L206.868 31.0375L198.64 30.0341L197.914 35.99ZM167.77 76.438L173.184 79.0249L195.968 31.3449L190.554 28.758L185.14 26.1711L162.356 73.8511L167.77 76.438ZM190.554 28.758V34.758H203.738V28.758V22.758H190.554V28.758ZM203.738 28.758L197.853 29.9271L207.325 77.6071L213.21 76.438L219.095 75.2689L209.623 27.5889L203.738 28.758ZM213.21 76.438V70.438H202.778V76.438V82.438H213.21V76.438ZM202.778 76.438L208.679 75.351L206.887 65.623L200.986 66.71L195.085 67.797L196.877 77.525L202.778 76.438ZM200.986 66.71V60.71H183.578V66.71V72.71H200.986V66.71ZM183.578 66.71L178.142 64.1707L173.598 73.8987L179.034 76.438L184.47 78.9773L189.014 69.2493L183.578 66.71ZM179.034 76.438V70.438H167.77V76.438V82.438H179.034V76.438ZM187.546 58.07V64.07H199.386V58.07V52.07H187.546V58.07ZM199.386 58.07L205.288 56.9907L201.192 34.5907L195.29 35.67L189.388 36.7492L193.484 59.1492L199.386 58.07ZM195.29 35.67L194.564 41.6259L197.188 41.9459L197.914 35.99L198.64 30.0341L196.016 29.7141L195.29 35.67ZM197.914 35.99L192.483 33.4398L182.115 55.5198L187.546 58.07L192.977 60.6202L203.345 38.5402L197.914 35.99ZM218.165 76.438L212.223 75.6084L211.269 82.438H218.165V76.438ZM224.821 28.758V22.758H219.6L218.879 27.9284L224.821 28.758ZM234.421 28.758L239.578 25.6907L237.833 22.758H234.421V28.758ZM249.077 53.398L248.641 59.3821L260.115 60.2188L254.234 50.3307L249.077 53.398ZM242.933 52.95L238.484 48.9245L230.236 58.0401L242.497 58.9341L242.933 52.95ZM264.821 28.758V22.758H262.158L260.372 24.7325L264.821 28.758ZM274.741 28.758L280.683 29.5875L281.637 22.758H274.741V28.758ZM268.085 76.438V82.438H273.306L274.027 77.2675L268.085 76.438ZM258.165 76.438L252.222 75.6129L251.274 82.438H258.165V76.438ZM263.221 40.022L265.231 34.3687L258.291 31.9011L257.278 39.1969L263.221 40.022ZM266.101 41.046L270.583 45.0345L276.507 38.3778L268.111 35.3927L266.101 41.046ZM245.429 64.278V70.278H248.122L249.911 68.2665L245.429 64.278ZM244.149 64.278L238.965 67.2988L240.701 70.278H244.149V64.278ZM229.045 38.358L231.303 32.7992L215.003 26.177L223.861 41.3788L229.045 38.358ZM233.141 40.022L239.084 40.8471L239.726 36.221L235.399 34.4632L233.141 40.022ZM228.085 76.438V82.438H233.309L234.028 77.2631L228.085 76.438ZM218.165 76.438L224.107 77.2675L230.763 29.5875L224.821 28.758L218.879 27.9284L212.223 75.6084L218.165 76.438ZM224.821 28.758V34.758H234.421V28.758V22.758H224.821V28.758ZM234.421 28.758L229.264 31.8252L243.92 56.4652L249.077 53.398L254.234 50.3307L239.578 25.6907L234.421 28.758ZM249.077 53.398L249.513 47.4139L243.369 46.9659L242.933 52.95L242.497 58.9341L248.641 59.3821L249.077 53.398ZM242.933 52.95L247.382 56.9755L269.27 32.7835L264.821 28.758L260.372 24.7325L238.484 48.9245L242.933 52.95ZM264.821 28.758V34.758H274.741V28.758V22.758H264.821V28.758ZM274.741 28.758L268.799 27.9284L262.143 75.6084L268.085 76.438L274.027 77.2675L280.683 29.5875L274.741 28.758ZM268.085 76.438V70.438H258.165V76.438V82.438H268.085V76.438ZM258.165 76.438L264.108 77.2631L269.164 40.8471L263.221 40.022L257.278 39.1969L252.222 75.6129L258.165 76.438ZM263.221 40.022L261.211 45.6753L264.091 46.6993L266.101 41.046L268.111 35.3927L265.231 34.3687L263.221 40.022ZM266.101 41.046L261.619 37.0575L240.947 60.2895L245.429 64.278L249.911 68.2665L270.583 45.0345L266.101 41.046ZM245.429 64.278V58.278H244.149V64.278V70.278H245.429V64.278ZM244.149 64.278L249.333 61.2571L234.229 35.3371L229.045 38.358L223.861 41.3788L238.965 67.2988L244.149 64.278ZM229.045 38.358L226.787 43.9168L230.883 45.5808L233.141 40.022L235.399 34.4632L231.303 32.7992L229.045 38.358ZM233.141 40.022L227.198 39.1969L222.142 75.6129L228.085 76.438L234.028 77.2631L239.084 40.8471L233.141 40.022ZM228.085 76.438V70.438H218.165V76.438V82.438H228.085V76.438ZM276.54 76.438L270.598 75.6084L269.644 82.438H276.54V76.438ZM283.196 28.758V22.758H277.975L277.254 27.9284L283.196 28.758ZM315.26 28.758L321.201 29.5942L322.164 22.758H315.26V28.758ZM314.044 37.398V43.398H319.259L319.985 38.2342L314.044 37.398ZM291.9 37.398V31.398H286.661L285.955 36.5889L291.9 37.398ZM290.428 48.214L284.483 47.4049L283.556 54.214H290.428V48.214ZM311.292 48.214L317.233 49.0502L318.196 42.214H311.292V48.214ZM310.076 56.854V62.854H315.291L316.017 57.6902L310.076 56.854ZM289.212 56.854V50.854H283.995L283.27 56.0201L289.212 56.854ZM287.676 67.798L281.734 66.9641L280.775 73.798H287.676V67.798ZM309.82 67.798L315.761 68.6342L316.724 61.798H309.82V67.798ZM308.604 76.438V82.438H313.819L314.545 77.2742L308.604 76.438ZM276.54 76.438L282.482 77.2675L289.138 29.5875L283.196 28.758L277.254 27.9284L270.598 75.6084L276.54 76.438ZM283.196 28.758V34.758H315.26V28.758V22.758H283.196V28.758ZM315.26 28.758L309.319 27.9218L308.103 36.5618L314.044 37.398L319.985 38.2342L321.201 29.5942L315.26 28.758ZM314.044 37.398V31.398H291.9V37.398V43.398H314.044V37.398ZM291.9 37.398L285.955 36.5889L284.483 47.4049L290.428 48.214L296.373 49.0231L297.845 38.2071L291.9 37.398ZM290.428 48.214V54.214H311.292V48.214V42.214H290.428V48.214ZM311.292 48.214L305.351 47.3778L304.135 56.0178L310.076 56.854L316.017 57.6902L317.233 49.0502L311.292 48.214ZM310.076 56.854V50.854H289.212V56.854V62.854H310.076V56.854ZM289.212 56.854L283.27 56.0201L281.734 66.9641L287.676 67.798L293.618 68.6319L295.154 57.6879L289.212 56.854ZM287.676 67.798V73.798H309.82V67.798V61.798H287.676V67.798ZM309.82 67.798L303.879 66.9618L302.663 75.6018L308.604 76.438L314.545 77.2742L315.761 68.6342L309.82 67.798ZM308.604 76.438V70.438H276.54V76.438V82.438H308.604V76.438ZM318.259 76.438L312.323 75.5673L311.315 82.438H318.259V76.438ZM319.667 66.838V60.838H314.483L313.731 65.9673L319.667 66.838ZM329.267 66.838L335.204 67.7087L336.212 60.838H329.267V66.838ZM327.859 76.438V82.438H333.044L333.796 77.3087L327.859 76.438ZM318.259 76.438L324.196 77.3087L325.604 67.7087L319.667 66.838L313.731 65.9673L312.323 75.5673L318.259 76.438ZM319.667 66.838V72.838H329.267V66.838V60.838H319.667V66.838ZM329.267 66.838L323.331 65.9673L321.923 75.5673L327.859 76.438L333.796 77.3087L335.204 67.7087L329.267 66.838ZM327.859 76.438V70.438H318.259V76.438V82.438H327.859V76.438ZM340.415 76.438L334.473 75.6084L333.519 82.438H340.415V76.438ZM347.071 28.758V22.758H341.85L341.129 27.9284L347.071 28.758ZM356.991 28.758L362.933 29.5875L363.887 22.758H356.991V28.758ZM350.335 76.438V82.438H355.556L356.277 77.2675L350.335 76.438ZM340.415 76.438L346.357 77.2675L353.013 29.5875L347.071 28.758L341.129 27.9284L334.473 75.6084L340.415 76.438ZM347.071 28.758V34.758H356.991V28.758V22.758H347.071V28.758ZM356.991 28.758L351.049 27.9284L344.393 75.6084L350.335 76.438L356.277 77.2675L362.933 29.5875L356.991 28.758ZM350.335 76.438V70.438H340.415V76.438V82.438H350.335V76.438ZM358.79 76.438L352.848 75.6084L351.894 82.438H358.79V76.438ZM365.446 28.758V22.758H360.225L359.504 27.9284L365.446 28.758ZM392.262 31.51L389.449 36.8095L389.449 36.8095L392.262 31.51ZM400.326 39.126L395.163 42.1829L395.178 42.2079L395.193 42.2328L400.326 39.126ZM401.35 60.758L406.91 63.0122L406.916 62.9993L406.921 62.9863L401.35 60.758ZM395.846 69.014L400.05 73.2947L400.05 73.2947L395.846 69.014ZM387.334 74.518L389.512 80.1087L389.544 80.0964L389.575 80.0838L387.334 74.518ZM369.926 67.798L363.983 66.9722L363.035 73.798H369.926V67.798ZM383.174 66.582L385.382 72.1608L385.412 72.1491L385.441 72.1371L383.174 66.582ZM388.55 62.998L392.852 67.1805L392.881 67.151L392.909 67.1212L388.55 62.998ZM392.006 57.494L386.435 55.2656L386.423 55.2952L386.412 55.3248L392.006 57.494ZM391.622 43.478L386.399 46.4303L386.399 46.4303L391.622 43.478ZM386.886 38.998L384.114 44.3195L384.158 44.3424L384.203 44.3646L386.886 38.998ZM374.15 37.398V31.398H368.926L368.207 36.5722L374.15 37.398ZM358.79 76.438L364.732 77.2675L371.388 29.5875L365.446 28.758L359.504 27.9284L352.848 75.6084L358.79 76.438ZM365.446 28.758V34.758H380.166V28.758V22.758H365.446V28.758ZM380.166 28.758V34.758C383.967 34.758 387.001 35.5101 389.449 36.8095L392.262 31.51L395.075 26.2104C390.611 23.8405 385.581 22.758 380.166 22.758V28.758ZM392.262 31.51L389.449 36.8095C391.969 38.1477 393.827 39.927 395.163 42.1829L400.326 39.126L405.489 36.069C402.985 31.8396 399.467 28.5416 395.075 26.2104L392.262 31.51ZM400.326 39.126L395.193 42.2328C396.525 44.434 397.27 47.0685 397.27 50.326H403.27H409.27C409.27 45.1354 408.052 40.3033 405.459 36.0192L400.326 39.126ZM403.27 50.326H397.27C397.27 53.3859 396.751 56.0994 395.779 58.5296L401.35 60.758L406.921 62.9863C408.509 59.0166 409.27 54.7754 409.27 50.326H403.27ZM401.35 60.758L395.79 58.5038C394.813 60.9134 393.435 62.9723 391.642 64.7333L395.846 69.014L400.05 73.2947C403.036 70.3623 405.327 66.9172 406.91 63.0122L401.35 60.758ZM395.846 69.014L391.642 64.7333C389.848 66.4951 387.689 67.9072 385.093 68.9521L387.334 74.518L389.575 80.0838C393.55 78.4834 397.065 76.2262 400.05 73.2947L395.846 69.014ZM387.334 74.518L385.156 68.9273C382.661 69.8995 379.744 70.438 376.326 70.438V76.438V82.438C381.014 82.438 385.437 81.6965 389.512 80.1087L387.334 74.518ZM376.326 76.438V70.438H358.79V76.438V82.438H376.326V76.438ZM369.926 67.798V73.798H376.326V67.798V61.798H369.926V67.798ZM376.326 67.798V73.798C379.492 73.798 382.538 73.2866 385.382 72.1608L383.174 66.582L380.966 61.0031C379.714 61.4987 378.194 61.798 376.326 61.798V67.798ZM383.174 66.582L385.441 72.1371C388.255 70.9885 390.751 69.3411 392.852 67.1805L388.55 62.998L384.248 58.8155C383.362 59.7269 382.274 60.4688 380.907 61.0269L383.174 66.582ZM388.55 62.998L392.909 67.1212C394.954 64.9593 396.517 62.4555 397.6 59.6632L392.006 57.494L386.412 55.3248C385.873 56.7138 385.133 57.8793 384.191 58.8748L388.55 62.998ZM392.006 57.494L397.577 59.7223C398.744 56.8037 399.286 53.6903 399.286 50.454H393.286H387.286C387.286 52.3377 386.974 53.9176 386.435 55.2656L392.006 57.494ZM393.286 50.454H399.286C399.286 46.9306 398.554 43.5478 396.845 40.5256L391.622 43.478L386.399 46.4303C386.909 47.3335 387.286 48.6014 387.286 50.454H393.286ZM391.622 43.478L396.845 40.5256C395.139 37.5062 392.668 35.1806 389.569 33.6314L386.886 38.998L384.203 44.3646C385.2 44.8634 385.887 45.5244 386.399 46.4303L391.622 43.478ZM386.886 38.998L389.658 33.6765C386.574 32.0703 383.124 31.398 379.526 31.398V37.398V43.398C381.645 43.398 383.102 43.7923 384.114 44.3195L386.886 38.998ZM379.526 37.398V31.398H374.15V37.398V43.398H379.526V37.398ZM374.15 37.398L368.207 36.5722L363.983 66.9722L369.926 67.798L375.869 68.6237L380.093 38.2237L374.15 37.398Z" fill="#4ECDC4" mask="url(#path-2-outside-1_11_9)"/>
</g>
<defs>
<filter id="filter0_d_11_9" x="0" y="0" width="835.685" height="111.046" filterUnits="userSpaceOnUse" color-interpolation-filters="sRGB">
<feFlood flood-opacity="0" result="BackgroundImageFix"/>
<feColorMatrix in="SourceAlpha" type="matrix" values="0 0 0 0 0 0 0 0 0 0 0 0 0 0 0 0 0 0 127 0" result="hardAlpha"/>
<feOffset dy="4"/>
<feGaussianBlur stdDeviation="2"/>
<feComposite in2="hardAlpha" operator="out"/>
<feColorMatrix type="matrix" values="0 0 0 0 0 0 0 0 0 0 0 0 0 0 0 0 0 0 0.25 0"/>
<feBlend mode="normal" in2="BackgroundImageFix" result="effect1_dropShadow_11_9"/>
<feBlend mode="normal" in="SourceGraphic" in2="effect1_dropShadow_11_9" result="shape"/>
</filter>
<filter id="filter1_d_11_9" x="60.1442" y="22.7579" width="353.126" height="67.6801" filterUnits="userSpaceOnUse" color-interpolation-filters="sRGB">
<feFlood flood-opacity="0" result="BackgroundImageFix"/>
<feColorMatrix in="SourceAlpha" type="matrix" values="0 0 0 0 0 0 0 0 0 0 0 0 0 0 0 0 0 0 127 0" result="hardAlpha"/>
<feOffset dy="4"/>
<feGaussianBlur stdDeviation="2"/>
<feComposite in2="hardAlpha" operator="out"/>
<feColorMatrix type="matrix" values="0 0 0 0 0 0 0 0 0 0 0 0 0 0 0 0 0 0 0.25 0"/>
<feBlend mode="normal" in2="BackgroundImageFix" result="effect1_dropShadow_11_9"/>
<feBlend mode="normal" in="SourceGraphic" in2="effect1_dropShadow_11_9" result="shape"/>
</filter>
</defs>
</svg>
